<svg width="846" height="225" viewBox="0 0 846 225" fill="none" xmlns="http://www.w3.org/2000/svg">
<rect width="225" height="225" rx="50" fill="#465FFF"/>
<path d="M167.181 161.531C157.254 173.228 143.978 181.599 129.145 185.515C114.311 189.432 98.6334 188.705 84.226 183.432C69.8185 178.16 57.3745 168.596 48.5723 156.031C39.77 143.465 35.033 128.503 35.0001 113.161C34.9672 97.8191 39.64 82.8363 48.3882 70.2332C57.1365 57.6301 69.5394 48.0129 83.924 42.6789C98.3087 37.3449 113.983 36.5506 128.833 40.4032C143.684 44.2557 156.995 52.5697 166.973 64.2239L110 113L167.181 161.531Z" fill="white"/>
<ellipse cx="114" cy="112.985" rx="50" ry="45" transform="rotate(-0.217993 114 112.985)" fill="#465FFF"/>
<circle cx="185" cy="188" r="15" fill="#F79009"/>
<path d="M335.113 94.918H315.67C315.315 92.4026 314.59 90.1683 313.495 88.2152C312.4 86.2325 310.994 84.5457 309.278 83.1548C307.562 81.764 305.579 80.6986 303.33 79.9588C301.11 79.219 298.699 78.8491 296.094 78.8491C291.389 78.8491 287.291 80.018 283.799 82.3558C280.307 84.6641 277.599 88.0376 275.675 92.4766C273.752 96.8859 272.79 102.242 272.79 108.545C272.79 115.026 273.752 120.471 275.675 124.881C277.629 129.29 280.351 132.619 283.843 134.868C287.335 137.117 291.374 138.242 295.961 138.242C298.536 138.242 300.918 137.902 303.108 137.221C305.327 136.54 307.295 135.549 309.012 134.247C310.728 132.915 312.149 131.302 313.273 129.408C314.427 127.514 315.226 125.354 315.67 122.928L335.113 123.016C334.609 127.189 333.352 131.214 331.339 135.09C329.357 138.937 326.679 142.385 323.305 145.433C319.961 148.451 315.966 150.848 311.32 152.624C306.703 154.37 301.48 155.243 295.651 155.243C287.542 155.243 280.292 153.408 273.9 149.739C267.537 146.069 262.507 140.757 258.808 133.803C255.138 126.849 253.303 118.429 253.303 108.545C253.303 98.6319 255.168 90.1979 258.896 83.2436C262.625 76.2893 267.685 70.9922 274.077 67.3523C280.469 63.6828 287.661 61.848 295.651 61.848C300.918 61.848 305.801 62.5878 310.299 64.0675C314.827 65.5471 318.837 67.7074 322.328 70.5483C325.82 73.3596 328.661 76.8072 330.851 80.891C333.071 84.9748 334.491 89.6504 335.113 94.918ZM367.983 155.287C363.633 155.287 359.756 154.533 356.353 153.023C352.95 151.485 350.257 149.221 348.274 146.232C346.321 143.213 345.344 139.455 345.344 134.957C345.344 131.169 346.04 127.988 347.431 125.413C348.821 122.839 350.715 120.767 353.112 119.199C355.509 117.63 358.232 116.447 361.28 115.648C364.358 114.849 367.583 114.286 370.957 113.961C374.922 113.547 378.118 113.162 380.545 112.807C382.972 112.422 384.732 111.86 385.827 111.12C386.922 110.38 387.47 109.285 387.47 107.835V107.569C387.47 104.758 386.582 102.583 384.806 101.044C383.06 99.5049 380.575 98.7354 377.349 98.7354C373.946 98.7354 371.238 99.4901 369.226 100.999C367.213 102.479 365.882 104.343 365.231 106.592L347.741 105.172C348.629 101.029 350.375 97.4482 352.979 94.4297C355.583 91.3816 358.942 89.0438 363.056 87.4162C367.199 85.759 371.993 84.9304 377.438 84.9304C381.226 84.9304 384.851 85.3743 388.313 86.2621C391.805 87.1499 394.897 88.5259 397.59 90.3903C400.313 92.2546 402.458 94.6516 404.027 97.5813C405.595 100.481 406.379 103.959 406.379 108.013V154H388.446V144.545H387.914C386.819 146.676 385.354 148.555 383.519 150.183C381.684 151.781 379.48 153.038 376.905 153.956C374.33 154.843 371.356 155.287 367.983 155.287ZM373.398 142.237C376.18 142.237 378.636 141.689 380.767 140.594C382.898 139.47 384.57 137.961 385.783 136.067C386.996 134.173 387.603 132.027 387.603 129.63V122.395C387.011 122.78 386.197 123.135 385.161 123.46C384.155 123.756 383.016 124.037 381.743 124.304C380.471 124.54 379.198 124.762 377.926 124.969C376.653 125.147 375.499 125.31 374.464 125.458C372.244 125.783 370.306 126.301 368.649 127.011C366.991 127.722 365.704 128.683 364.787 129.897C363.869 131.08 363.411 132.56 363.411 134.336C363.411 136.91 364.343 138.878 366.207 140.239C368.101 141.571 370.498 142.237 373.398 142.237ZM477.779 105.261L460.468 106.326C460.172 104.846 459.536 103.515 458.559 102.331C457.582 101.118 456.295 100.156 454.697 99.4457C453.129 98.7058 451.25 98.3359 449.06 98.3359C446.13 98.3359 443.659 98.9574 441.647 100.2C439.634 101.414 438.628 103.041 438.628 105.083C438.628 106.711 439.279 108.087 440.581 109.211C441.883 110.336 444.118 111.238 447.284 111.919L459.624 114.405C466.253 115.766 471.195 117.956 474.45 120.974C477.705 123.993 479.333 127.958 479.333 132.871C479.333 137.339 478.016 141.26 475.382 144.634C472.778 148.007 469.198 150.641 464.64 152.535C460.113 154.4 454.889 155.332 448.971 155.332C439.945 155.332 432.754 153.453 427.398 149.694C422.071 145.906 418.949 140.757 418.032 134.247L436.631 133.27C437.193 136.022 438.554 138.123 440.714 139.574C442.875 140.994 445.642 141.704 449.015 141.704C452.33 141.704 454.993 141.068 457.005 139.795C459.047 138.493 460.083 136.821 460.113 134.779C460.083 133.063 459.358 131.657 457.938 130.562C456.517 129.438 454.327 128.58 451.368 127.988L439.56 125.635C432.902 124.304 427.945 121.995 424.69 118.711C421.464 115.426 419.852 111.238 419.852 106.148C419.852 101.769 421.035 97.9956 423.403 94.8292C425.8 91.6628 429.158 89.2214 433.479 87.505C437.829 85.7886 442.919 84.9304 448.749 84.9304C457.36 84.9304 464.137 86.7504 469.079 90.3903C474.051 94.0302 476.951 98.987 477.779 105.261ZM522.313 155.332C515.299 155.332 509.263 153.911 504.202 151.07C499.171 148.2 495.295 144.146 492.572 138.908C489.85 133.64 488.488 127.411 488.488 120.22C488.488 113.206 489.85 107.051 492.572 101.754C495.295 96.4568 499.127 92.3286 504.069 89.3693C509.041 86.41 514.87 84.9304 521.558 84.9304C526.056 84.9304 530.244 85.6554 534.12 87.1055C538.027 88.5259 541.43 90.6714 544.33 93.5419C547.26 96.4124 549.538 100.023 551.166 104.373C552.794 108.693 553.607 113.754 553.607 119.554V124.748H496.035V113.029H535.807C535.807 110.306 535.215 107.894 534.032 105.793C532.848 103.692 531.206 102.05 529.104 100.866C527.033 99.6528 524.621 99.0462 521.869 99.0462C518.999 99.0462 516.454 99.712 514.234 101.044C512.044 102.346 510.328 104.107 509.085 106.326C507.842 108.516 507.206 110.957 507.176 113.65V124.792C507.176 128.165 507.798 131.08 509.041 133.537C510.313 135.993 512.103 137.887 514.412 139.218C516.72 140.55 519.457 141.216 522.624 141.216C524.725 141.216 526.648 140.92 528.394 140.328C530.14 139.736 531.635 138.848 532.878 137.665C534.12 136.481 535.067 135.031 535.718 133.315L553.208 134.469C552.32 138.671 550.5 142.34 547.748 145.477C545.025 148.585 541.504 151.011 537.183 152.757C532.892 154.473 527.936 155.332 522.313 155.332Z" fill="black"/>
<path d="M575.624 154.71C573.435 154.71 571.555 153.926 569.987 152.358C568.419 150.789 567.634 148.91 567.634 146.72C567.634 144.53 568.419 142.651 569.987 141.083C571.555 139.514 573.435 138.73 575.624 138.73C577.814 138.73 579.693 139.514 581.262 141.083C582.83 142.651 583.614 144.53 583.614 146.72C583.614 148.17 583.245 149.502 582.505 150.715C581.794 151.929 580.833 152.905 579.619 153.645C578.436 154.355 577.104 154.71 575.624 154.71ZM630.112 155.42C623.72 155.42 618.216 153.911 613.599 150.893C608.983 147.874 605.432 143.717 602.946 138.419C600.46 133.122 599.217 127.071 599.217 120.264C599.217 113.339 600.49 107.229 603.035 101.931C605.609 96.6048 609.19 92.447 613.777 89.4581C618.393 86.4396 623.779 84.9304 629.935 84.9304C634.729 84.9304 639.049 85.8182 642.896 87.5938C646.743 89.3693 649.895 91.8551 652.351 95.0511C654.807 98.2472 656.331 101.976 656.923 106.237H646.447C645.648 103.13 643.873 100.378 641.121 97.9808C638.398 95.5542 634.729 94.3409 630.112 94.3409C626.028 94.3409 622.448 95.4062 619.37 97.5369C616.322 99.638 613.94 102.612 612.223 106.459C610.536 110.277 609.693 114.76 609.693 119.909C609.693 125.177 610.522 129.763 612.179 133.67C613.866 137.576 616.233 140.609 619.281 142.77C622.359 144.93 625.969 146.01 630.112 146.01C632.835 146.01 635.306 145.536 637.525 144.589C639.745 143.643 641.624 142.281 643.163 140.506C644.701 138.73 645.796 136.599 646.447 134.114H656.923C656.331 138.138 654.867 141.763 652.529 144.989C650.22 148.185 647.158 150.73 643.34 152.624C639.552 154.488 635.143 155.42 630.112 155.42ZM699.936 155.42C693.781 155.42 688.38 153.956 683.734 151.026C679.118 148.096 675.507 143.998 672.903 138.73C670.329 133.463 669.041 127.307 669.041 120.264C669.041 113.162 670.329 106.962 672.903 101.665C675.507 96.368 679.118 92.2546 683.734 89.3249C688.38 86.3952 693.781 84.9304 699.936 84.9304C706.092 84.9304 711.478 86.3952 716.094 89.3249C720.74 92.2546 724.35 96.368 726.925 101.665C729.529 106.962 730.831 113.162 730.831 120.264C730.831 127.307 729.529 133.463 726.925 138.73C724.35 143.998 720.74 148.096 716.094 151.026C711.478 153.956 706.092 155.42 699.936 155.42ZM699.936 146.01C704.612 146.01 708.459 144.811 711.478 142.414C714.496 140.017 716.73 136.866 718.18 132.96C719.63 129.053 720.355 124.821 720.355 120.264C720.355 115.707 719.63 111.46 718.18 107.525C716.73 103.589 714.496 100.407 711.478 97.9808C708.459 95.5542 704.612 94.3409 699.936 94.3409C695.261 94.3409 691.414 95.5542 688.395 97.9808C685.377 100.407 683.142 103.589 681.692 107.525C680.242 111.46 679.517 115.707 679.517 120.264C679.517 124.821 680.242 129.053 681.692 132.96C683.142 136.866 685.377 140.017 688.395 142.414C691.414 144.811 695.261 146.01 699.936 146.01ZM746.822 154V85.8182H756.943V96.4716H757.831C759.251 92.8317 761.545 90.0056 764.711 87.9933C767.878 85.9513 771.68 84.9304 776.119 84.9304C780.617 84.9304 784.361 85.9513 787.35 87.9933C790.368 90.0056 792.721 92.8317 794.408 96.4716H795.118C796.864 92.95 799.483 90.1535 802.975 88.082C806.467 85.9809 810.654 84.9304 815.537 84.9304C821.633 84.9304 826.619 86.8391 830.496 90.6566C834.373 94.4445 836.311 100.348 836.311 108.368V154H825.835V108.368C825.835 103.337 824.459 99.7416 821.707 97.5813C818.955 95.421 815.714 94.3409 811.986 94.3409C807.192 94.3409 803.478 95.791 800.844 98.6911C798.21 101.562 796.893 105.201 796.893 109.611V154H786.24V107.303C786.24 103.426 784.982 100.304 782.467 97.9364C779.952 95.5394 776.711 94.3409 772.746 94.3409C770.023 94.3409 767.478 95.0659 765.111 96.516C762.773 97.966 760.879 99.9783 759.429 102.553C758.009 105.098 757.298 108.042 757.298 111.386V154H746.822Z" fill="#F79009"/>
</svg>
